<?xml version="1.0" encoding="UTF-8"?>
<svg xmlns="http://www.w3.org/2000/svg" xmlns:xlink="http://www.w3.org/1999/xlink" width="19pt" height="18pt" viewBox="0 0 19 18" version="1.1">
<g id="surface1">
<path style=" stroke:none;fill-rule:nonzero;fill:rgb(0%,0%,0%);fill-opacity:1;" d="M 7.402344 0.492188 C 4.171875 0.886719 1.351562 3.484375 0.507812 6.855469 C 0.292969 7.707031 0.222656 9.386719 0.367188 10.292969 C 0.652344 12.15625 1.492188 13.839844 2.769531 15.121094 C 3.785156 16.125 4.75 16.707031 6.140625 17.160156 C 6.867188 17.390625 7.089844 17.421875 8.375 17.421875 C 9.664062 17.421875 9.886719 17.390625 10.613281 17.160156 C 11.488281 16.878906 12.316406 16.464844 12.980469 16 C 13.511719 15.625 14.730469 14.386719 14.730469 14.234375 C 14.730469 14.167969 14.601562 14.011719 14.441406 13.894531 L 14.15625 13.683594 L 13.503906 14.367188 C 13.136719 14.734375 12.582031 15.21875 12.269531 15.429688 C 9.390625 17.363281 5.503906 16.871094 3.167969 14.28125 C 2.144531 13.144531 1.609375 12.128906 1.28125 10.640625 C 1.023438 9.550781 1.078125 7.851562 1.378906 6.808594 C 2.125 4.296875 3.921875 2.421875 6.351562 1.621094 C 6.941406 1.429688 7.234375 1.398438 8.375 1.398438 C 9.519531 1.398438 9.8125 1.429688 10.402344 1.621094 C 13.0625 2.5 14.949219 4.644531 15.511719 7.417969 C 15.574219 7.773438 15.613281 8.09375 15.59375 8.132812 C 15.566406 8.167969 15.117188 7.976562 14.582031 7.695312 C 13.816406 7.300781 13.585938 7.214844 13.457031 7.300781 C 13.097656 7.542969 13.21875 7.820312 14.398438 9.648438 C 15.757812 11.742188 15.804688 11.800781 16.089844 11.761719 C 16.273438 11.742188 16.515625 11.375 17.453125 9.703125 C 18.078125 8.585938 18.59375 7.628906 18.59375 7.570312 C 18.59375 7.523438 18.539062 7.398438 18.484375 7.308594 C 18.375 7.164062 18.28125 7.203125 17.492188 7.675781 C 17.011719 7.964844 16.589844 8.207031 16.550781 8.207031 C 16.523438 8.207031 16.46875 7.976562 16.433594 7.695312 C 16.089844 5.050781 14.3125 2.519531 11.921875 1.273438 C 11.296875 0.945312 10.117188 0.609375 9.25 0.492188 C 8.339844 0.375 8.339844 0.375 7.402344 0.492188 Z M 7.402344 0.492188 "/>
</g>
</svg>
