<?xml version="1.0" encoding="iso-8859-1"?>
<!-- Generator: Adobe Illustrator 19.0.0, SVG Export Plug-In . SVG Version: 6.00 Build 0)  -->
<svg version="1.1" id="Capa_1" xmlns="http://www.w3.org/2000/svg" xmlns:xlink="http://www.w3.org/1999/xlink" x="0px" y="0px"
	 viewBox="0 0 511.999 511.999" style="enable-background:new 0 0 511.999 511.999;" xml:space="preserve">
<g>
	<g>
		<path d="M101.897,45.733c-4.161,0-7.533,3.373-7.533,7.533v3.593c0,4.16,3.372,7.533,7.533,7.533c4.161,0,7.533-3.373,7.533-7.533
			v-3.593C109.43,49.106,106.057,45.733,101.897,45.733z"/>
	</g>
</g>
<g>
	<g>
		<path d="M77.2,74.023h-3.593c-4.161,0-7.533,3.373-7.533,7.533c0,4.16,3.372,7.533,7.533,7.533H77.2
			c4.16,0,7.533-3.373,7.533-7.533C84.733,77.396,81.361,74.023,77.2,74.023z"/>
	</g>
</g>
<g>
	<g>
		<path d="M89.76,58.766l-2.54-2.54c-2.943-2.942-7.711-2.942-10.654,0c-2.942,2.942-2.942,7.711,0,10.653l2.54,2.54
			c1.471,1.471,3.4,2.206,5.327,2.206s3.856-0.736,5.327-2.206C92.702,66.477,92.702,61.708,89.76,58.766z"/>
	</g>
</g>
<g>
	<g>
		<path d="M89.76,93.692c-2.942-2.941-7.711-2.941-10.654,0l-2.54,2.54c-2.942,2.942-2.942,7.711,0,10.653
			c1.471,1.471,3.4,2.206,5.327,2.206s3.856-0.736,5.327-2.206l2.54-2.54C92.702,101.403,92.702,96.634,89.76,93.692z"/>
	</g>
</g>
<g>
	<g>
		<path d="M316.868,283.769L487.84,95.677c3.936-4.331,4.911-10.346,2.543-15.698c-2.368-5.352-7.474-8.677-13.327-8.677H182.782
			c-2.302-18.384-10.741-35.356-24.221-48.391C143.281,8.137,123.158,0,101.897,0c-44.97,0-81.556,36.586-81.556,81.556
			c0,44.97,36.586,81.556,81.555,81.556c15.307,0,29.978-4.184,42.829-12.149l120.719,132.806c1.78,1.958,3.77,3.681,5.913,5.165
			v165.399c0,8.484-5.384,16.057-13.398,18.843l-57.286,19.917c-0.153,0.053-0.304,0.111-0.453,0.174
			c-4.327,1.824-6.698,6.313-5.768,10.915c0.931,4.603,4.86,7.817,9.556,7.817h174.295c4.696,0,8.626-3.215,9.556-7.818
			c0.93-4.603-1.443-9.092-5.77-10.915c-0.149-0.063-0.3-0.121-0.452-0.174l-57.286-19.917
			c-8.013-2.786-13.397-10.359-13.397-18.843V288.934C313.098,287.45,315.088,285.727,316.868,283.769z M101.897,148.046
			c-36.662,0-66.489-29.827-66.489-66.49c0-36.663,29.827-66.49,66.489-66.49c33.297,0,60.767,24.14,65.674,56.236h-7.903
			c-4.863-27.666-28.977-48.428-57.771-48.428c-32.357,0-58.682,26.325-58.682,58.682s26.324,58.682,58.682,58.682
			c9.506,0,18.749-2.269,27.073-6.608l5.408,5.949C124.501,145.135,113.421,148.046,101.897,148.046z M127.227,56.226
			c-2.943-2.942-7.711-2.942-10.654,0l-2.54,2.54c-2.942,2.942-2.942,7.711,0,10.653c0.909,0.909,1.994,1.535,3.144,1.883h-11.922
			c-5.853,0-10.959,3.325-13.327,8.677c-2.368,5.352-1.393,11.367,2.543,15.698l3.678,4.047c-2.26,1.3-3.786,3.734-3.786,6.529
			v3.593c0,4.16,3.372,7.533,7.533,7.533c3.472,0,6.387-2.352,7.26-5.547l9.199,10.12c-5.187,2.116-10.757,3.219-16.459,3.219
			c-24.05,0-43.616-19.566-43.616-43.616S77.847,37.94,101.897,37.94c20.481,0,37.779,14.129,42.398,33.362h-22.752
			c1.15-0.347,2.235-0.974,3.144-1.883l2.54-2.54C130.169,63.937,130.169,59.167,127.227,56.226z M319.404,487.406l27.404,9.528
			H235.503l27.404-9.528c14.065-4.891,23.516-18.182,23.516-33.073V294.807c1.561,0.216,3.14,0.337,4.733,0.337
			c1.593,0,3.173-0.121,4.734-0.337v159.526C295.889,469.224,305.339,482.515,319.404,487.406z M305.719,273.635
			c-3.776,4.154-8.948,6.443-14.564,6.443c-5.614,0-10.786-2.288-14.563-6.443c0,0,0,0,0-0.001L161.59,147.116h40.681
			c4.161,0,7.533-3.373,7.533-7.533c0-4.16-3.372-7.533-7.533-7.533h-54.376L106.37,86.368h369.571l-41.524,45.682H237.321
			c-4.161,0-7.533,3.373-7.533,7.533c0,4.16,3.372,7.533,7.533,7.533h183.401L305.719,273.635z"/>
	</g>
</g>
<g>
</g>
<g>
</g>
<g>
</g>
<g>
</g>
<g>
</g>
<g>
</g>
<g>
</g>
<g>
</g>
<g>
</g>
<g>
</g>
<g>
</g>
<g>
</g>
<g>
</g>
<g>
</g>
<g>
</g>
</svg>
